<svg xmlns="http://www.w3.org/2000/svg" viewBox="0 0 760 220" role="img" aria-labelledby="title desc">
  <title id="title">MalkDown Editor Logo</title>
  <desc id="desc">MalkDown Editor wordmark with a red-front carton, Vitamin R note, and CommonMark compliance note.</desc>
  <defs>
    <linearGradient id="badge" x1="18" y1="16" x2="196" y2="204" gradientUnits="userSpaceOnUse">
      <stop offset="0" stop-color="#2f435b" />
      <stop offset="0.58" stop-color="#18283d" />
      <stop offset="1" stop-color="#081421" />
    </linearGradient>
  </defs>

  <rect x="10" y="12" width="200" height="196" rx="34" fill="url(#badge)" />
  <path d="M25 174c34 19 86 24 136 8 18-6 33-15 44-29v55H25Z" fill="#020817" opacity="0.24" />

  <g transform="translate(9 18) scale(0.36)">
    <polygon fill="#fffdfa" points="78,157 161,68 370,112 298,210" />
    <polygon fill="#fffdfa" points="164,27 369,70 369,98 164,56" />
    <polygon fill="#fffdfa" points="319,201 440,150 440,403 306,482 306,220" />
    <polygon fill="#d21f24" points="72,169 294,221 294,485 72,422" />
    <path fill="#000000" d="M458.265,136.914l-65.048-36.854V59.676c0-5.784-4.052-10.765-9.713-11.934L154.816,0.254
      c-3.582-0.742-7.334,0.164-10.173,2.478c-2.832,2.307-4.492,5.796-4.492,9.457v42.697l-89.337,96.211
      c-2.089,2.247-3.256,5.231-3.256,8.294v272.033c0,5.448,3.614,10.232,8.856,11.731l240.554,68.38
      c3.221,0.92,6.677,0.466,9.558-1.242l146.9-87.273c2.79-0.276,5.458-1.466,7.446-3.457c2.267-2.267,3.572-5.408,3.572-8.616
      V147.521C464.443,143.132,462.087,139.083,458.265,136.914z M431.948,150.032L319.13,201.148l59.934-81.084L431.948,150.032z
      M164.529,27.172l204.31,42.421v28.811l-204.31-42.428V27.172z M294.204,485.404L71.939,422.216V168.538l222.265,52.653V485.404z
      M297.785,209.513l-219.64-52.028l83.127-89.522c0.052-0.053,0.089-0.125,0.138-0.177l208.122,43.216
      c0.109,0.322,0.256,0.625,0.391,0.934L297.785,209.513z M440.061,402.599l-133.667,79.414V220.298l133.667-60.56V402.599z"/>
    <path fill="#ffffff" transform="translate(45 8)" d="M94.158,323.961c2.724,0.512,4.82-0.822,4.952-3.851l1.239-30.546l0.44,0.086l10.058,25.157
      c1.466,3.661,2.987,4.936,5.537,5.415c2.474,0.466,4.094-0.223,5.819-3.279l11.859-21.036l0.427,0.085l-1.239,30.54
      c-0.131,3.023,1.824,5.126,4.644,5.651c2.727,0.513,4.82-0.828,4.951-3.857l1.857-45.924c0.158-3.602-1.952-6.23-5.474-6.888
      c-3.082-0.578-4.548,0.716-6.272,3.851l-15.691,28.154l-0.358-0.072l-13.534-33.642c-1.525-3.752-2.869-5.573-5.954-6.151
      c-3.522-0.658-5.892,1.117-6.046,4.725l-1.857,45.924C89.384,321.332,91.335,323.435,94.158,323.961z"/>
    <path fill="#ffffff" transform="translate(45 8)" d="M162,277c5,1,8,5,8,10l-1.45,35.8l16.5,3.1l-23.8,27.8l-21.7-36.3l16.4,3.1l1.45-35.8
      C157.6,279.7,159,276.4,162,277z"/>
  </g>

  <text x="250" y="100" font-family="Inter, Segoe UI, Arial, sans-serif" font-size="58" font-weight="760" letter-spacing="0" fill="#11253a">MalkDown</text>
  <text x="253" y="149" font-family="Inter, Segoe UI, Arial, sans-serif" font-size="35" font-weight="640" letter-spacing="0" fill="#b91417">Editor</text>
  <path d="M253 169h290" stroke="#d21f24" stroke-width="7" stroke-linecap="round" />
  <path d="M565 156v18h10l-19 22-19-22h10v-18Z" fill="#d21f24" />
  <text x="255" y="193" font-family="Inter, Segoe UI, Arial, sans-serif" font-size="12" font-weight="620" letter-spacing="1" fill="#7b8793">Now with vitamin R</text>
  <text x="255" y="210" font-family="Inter, Segoe UI, Arial, sans-serif" font-size="12" font-weight="620" letter-spacing="1" fill="#7b8793">CommonMark compliant</text>
</svg>
