<?xml version="1.0" encoding="utf-8"?>
<svg height="800px" width="800px" version="1.1" id="_x32_" xmlns="http://www.w3.org/2000/svg" viewBox="0 0 512 512" xml:space="preserve">
<style type="text/css">
  .outline{fill:#000000;}
  .panel{fill:#d21f24;}
  .mark{fill:#ffffff;}
</style>
<g>
  <polygon class="panel" points="72,169 294,221 294,485 72,422"/>

  <path class="outline" d="M458.265,136.914l-65.048-36.854V59.676c0-5.784-4.052-10.765-9.713-11.934L154.816,0.254
    c-3.582-0.742-7.334,0.164-10.173,2.478c-2.832,2.307-4.492,5.796-4.492,9.457v42.697l-89.337,96.211
    c-2.089,2.247-3.256,5.231-3.256,8.294v272.033c0,5.448,3.614,10.232,8.856,11.731l240.554,68.38
    c3.221,0.92,6.677,0.466,9.558-1.242l146.9-87.273c2.79-0.276,5.458-1.466,7.446-3.457c2.267-2.267,3.572-5.408,3.572-8.616
    V147.521C464.443,143.132,462.087,139.083,458.265,136.914z M431.948,150.032L319.13,201.148l59.934-81.084L431.948,150.032z
    M164.529,27.172l204.31,42.421v28.811l-204.31-42.428V27.172z M294.204,485.404L71.939,422.216V168.538l222.265,52.653V485.404z
    M297.785,209.513l-219.64-52.028l83.127-89.522c0.052-0.053,0.089-0.125,0.138-0.177l208.122,43.216
    c0.109,0.322,0.256,0.625,0.391,0.934L297.785,209.513z M440.061,402.599l-133.667,79.414V220.298l133.667-60.56V402.599z"/>

  <path class="mark" transform="translate(45 8)" d="M94.158,323.961c2.724,0.512,4.82-0.822,4.952-3.851l1.239-30.546l0.44,0.086l10.058,25.157
    c1.466,3.661,2.987,4.936,5.537,5.415c2.474,0.466,4.094-0.223,5.819-3.279l11.859-21.036l0.427,0.085l-1.239,30.54
    c-0.131,3.023,1.824,5.126,4.644,5.651c2.727,0.513,4.82-0.828,4.951-3.857l1.857-45.924c0.158-3.602-1.952-6.23-5.474-6.888
    c-3.082-0.578-4.548,0.716-6.272,3.851l-15.691,28.154l-0.358-0.072l-13.534-33.642c-1.525-3.752-2.869-5.573-5.954-6.151
    c-3.522-0.658-5.892,1.117-6.046,4.725l-1.857,45.924C89.384,321.332,91.335,323.435,94.158,323.961z"/>

  <path class="mark" transform="translate(45 8)" d="M162,277c5,1,8,5,8,10l-1.45,35.8l16.5,3.1l-23.8,27.8l-21.7-36.3l16.4,3.1l1.45-35.8
    C157.6,279.7,159,276.4,162,277z"/>
</g>
</svg>
