<?xml version="1.0" encoding="utf-8"?>
<svg height="800px" width="800px" version="1.1" id="_x32_" xmlns="http://www.w3.org/2000/svg" viewBox="0 0 512 512" xml:space="preserve">
<style type="text/css">
  .outline{fill:#000000;}
  .panel{fill:#d21f24;}
  .markLine{fill:none;stroke:#ffffff;stroke-width:18;stroke-linecap:round;stroke-linejoin:round;}
  .markHead{fill:#ffffff;}
</style>
<g>
  <polygon class="panel" points="72,169 294,221 294,485 72,422"/>

  <path class="outline" d="M458.265,136.914l-65.048-36.854V59.676c0-5.784-4.052-10.765-9.713-11.934L154.816,0.254
    c-3.582-0.742-7.334,0.164-10.173,2.478c-2.832,2.307-4.492,5.796-4.492,9.457v42.697l-89.337,96.211
    c-2.089,2.247-3.256,5.231-3.256,8.294v272.033c0,5.448,3.614,10.232,8.856,11.731l240.554,68.38
    c3.221,0.92,6.677,0.466,9.558-1.242l146.9-87.273c2.79-0.276,5.458-1.466,7.446-3.457c2.267-2.267,3.572-5.408,3.572-8.616
    V147.521C464.443,143.132,462.087,139.083,458.265,136.914z M431.948,150.032L319.13,201.148l59.934-81.084L431.948,150.032z
    M164.529,27.172l204.31,42.421v28.811l-204.31-42.428V27.172z M294.204,485.404L71.939,422.216V168.538l222.265,52.653V485.404z
    M297.785,209.513l-219.64-52.028l83.127-89.522c0.052-0.053,0.089-0.125,0.138-0.177l208.122,43.216
    c0.109,0.322,0.256,0.625,0.391,0.934L297.785,209.513z M440.061,402.599l-133.667,79.414V220.298l133.667-60.56V402.599z"/>

  <path class="markLine" d="M128,345 L133,267 L169,322 L210,281 L205,347"/>
  <path class="markHead" d="M176,338 L238,351 L203,393Z"/>
</g>
</svg>
